# xmcd
# 
# Track frame offsets:
#     150
#     16763
#     39683
#     54641
#     72626
#     83079
#     104910
#     120687
#     134357
#     148871
#     164244
#     179542
#     193190
#     208477
#     234189
#     249415
# 
# Disc length: 3556
# 
# Revision: 0
# Processed by: cddbd v1.5.2PL0 Copyright (c) Steve Scherf et al.
# Submitted via: BonkEnc v1.0.8
# 
DISCID=fd0de210
DTITLE=Various Artist - The American Folk Blues Festival 1962-1966
DYEAR=2003
DGENRE=Blues
TTITLE0=Howlin' Wolf - Shake For Me
TTITLE1=Otis Rush - I Can't Quit You Baby
TTITLE2=Lonnie Johnson - Another Night To Cry
TTITLE3=Sippie Wallace - Women Be Wise
TTITLE4=Memphis Slim - Everyday I Have The Blues
TTITLE5=T-Bone Walker - Don't Throw Your Love On Me So Strong
TTITLE6=Junior Wells - Hoodoo Man Blues
TTITLE7=Victoria Spivey - Black Snake Blues
TTITLE8=Lightnin' Hopkins - Mojo Hand
TTITLE9=Sonny Boy Williamson - My Younger Days
TTITLE10=Eddy Boyd - Five Long Years
TTITLE11=Mississippi Fred McDowell - Going Down The Road
TTITLE12=Willie Dixon - Sittin' And Cryin' The Blues
TTITLE13=Sonny Boy Williamson - Nine Below Zero
TTITLE14=Howlin' Wolf - Love Me Darlin'
TTITLE15=Muddy Waters - Got My Mojo Working
EXTD=
EXTT0=
EXTT1=
EXTT2=
EXTT3=
EXTT4=
EXTT5=
EXTT6=
EXTT7=
EXTT8=
EXTT9=
EXTT10=
EXTT11=
EXTT12=
EXTT13=
EXTT14=
EXTT15=
PLAYORDER=
